<?xml version="1.0" encoding="UTF-8"?>
<svg xmlns="http://www.w3.org/2000/svg" width="1000" height="415" viewBox="0 0 1000 415" role="img">
<defs></defs>
<rect x="0.5" y="0.5" width="999.0" height="414.0" fill="#0E131A" rx="14.0" stroke="#21262D" stroke-width="1"/>
<rect x="40.0" y="42.0" width="34.0" height="34.0" fill="#161B22" rx="9.0" stroke="#21262D" stroke-width="1"/>
<text x="57.0" y="64.0" font-family="ui-monospace,SFMono-Regular,'SF Mono',Menlo,Consolas,'Liberation Mono',monospace" font-size="13.0" fill="#58A6FF" font-weight="600" text-anchor="middle">04</text>
<text x="88.0" y="66.0" font-family="-apple-system,BlinkMacSystemFont,'Segoe UI',Helvetica,Arial,sans-serif" font-size="23.0" fill="#E6EDF3" font-weight="700" letter-spacing="-0.3">Mach Contadores</text>
<rect x="642.0" y="45.0" width="154.0" height="28.0" fill="#161B22" rx="14.0" stroke="#21262D" stroke-width="1"/>
<text x="719.0" y="63.0" font-family="ui-monospace,SFMono-Regular,'SF Mono',Menlo,Consolas,'Liberation Mono',monospace" font-size="10.5" fill="#6E7681" font-weight="500" text-anchor="middle" letter-spacing="1.2">DESPACHO CONTABLE</text>
<rect x="806.0" y="45.0" width="154.0" height="28.0" fill="#161B22" rx="14.0" stroke="#21262D" stroke-width="1"/>
<text x="883.0" y="63.0" font-family="ui-monospace,SFMono-Regular,'SF Mono',Menlo,Consolas,'Liberation Mono',monospace" font-size="10.5" fill="#6E7681" font-weight="500" text-anchor="middle" letter-spacing="1.2">AUTOMATIZACIÓN</text>
<text x="40.0" y="104.0" font-family="-apple-system,BlinkMacSystemFont,'Segoe UI',Helvetica,Arial,sans-serif" font-size="13.5" fill="#9198A1" font-style="italic">Sistema integral de automatización de tareas y procesos para despacho contable.</text>
<g><rect x="40.0" y="126.0" width="30.0" height="30.0" rx="8.0" fill="#161B22" stroke="#21262D" stroke-width="1"/><svg x="45.5" y="131.5" width="19.0" height="19.0" viewBox="0 0 24 24"><path fill="#777BB4" d="M7.01 10.207h-.944l-.515 2.648h.838c.556 0 .97-.105 1.242-.314.272-.21.455-.559.55-1.049.092-.47.05-.802-.124-.995-.175-.193-.523-.29-1.047-.29zM12 5.688C5.373 5.688 0 8.514 0 12s5.373 6.313 12 6.313S24 15.486 24 12c0-3.486-5.373-6.312-12-6.312zm-3.26 7.451c-.261.25-.575.438-.917.551-.336.108-.765.164-1.285.164H5.357l-.327 1.681H3.652l1.23-6.326h2.65c.797 0 1.378.209 1.744.628.366.418.476 1.002.33 1.752a2.836 2.836 0 0 1-.305.847c-.143.255-.33.49-.561.703zm4.024.715l.543-2.799c.063-.318.039-.536-.068-.651-.107-.116-.336-.174-.687-.174H11.46l-.704 3.625H9.388l1.23-6.327h1.367l-.327 1.682h1.218c.767 0 1.295.134 1.586.401s.378.7.263 1.299l-.572 2.944h-1.389zm7.597-2.265a2.782 2.782 0 0 1-.305.847c-.143.255-.33.49-.561.703a2.44 2.44 0 0 1-.917.551c-.336.108-.765.164-1.286.164h-1.18l-.327 1.682h-1.378l1.23-6.326h2.649c.797 0 1.378.209 1.744.628.366.417.477 1.001.331 1.751zM17.766 10.207h-.943l-.516 2.648h.838c.557 0 .971-.105 1.242-.314.272-.21.455-.559.551-1.049.092-.47.049-.802-.125-.995s-.524-.29-1.047-.29z"/></svg></g>
<g><rect x="78.0" y="126.0" width="30.0" height="30.0" rx="8.0" fill="#161B22" stroke="#21262D" stroke-width="1"/><svg x="83.5" y="131.5" width="19.0" height="19.0" viewBox="0 0 24 24"><path fill="#4479A1" d="M16.405 5.501c-.115 0-.193.014-.274.033v.013h.014c.054.104.146.18.214.273.054.107.1.214.154.32l.014-.015c.094-.066.14-.172.14-.333-.04-.047-.046-.094-.08-.14-.04-.067-.126-.1-.18-.153zM5.77 18.695h-.927a50.854 50.854 0 00-.27-4.41h-.008l-1.41 4.41H2.45l-1.4-4.41h-.01a72.892 72.892 0 00-.195 4.41H0c.055-1.966.192-3.81.41-5.53h1.15l1.335 4.064h.008l1.347-4.064h1.095c.242 2.015.384 3.86.428 5.53zm4.017-4.08c-.378 2.045-.876 3.533-1.492 4.46-.482.716-1.01 1.073-1.583 1.073-.153 0-.34-.046-.566-.138v-.494c.11.017.24.026.386.026.268 0 .483-.075.647-.222.197-.18.295-.382.295-.605 0-.155-.077-.47-.23-.944L6.23 14.615h.91l.727 2.36c.164.536.233.91.205 1.123.4-1.064.678-2.227.835-3.483zm12.325 4.08h-2.63v-5.53h.885v4.85h1.745zm-3.32.135l-1.016-.5c.09-.076.177-.158.255-.25.433-.506.648-1.258.648-2.253 0-1.83-.718-2.746-2.155-2.746-.704 0-1.254.232-1.65.697-.43.508-.646 1.256-.646 2.245 0 .972.19 1.686.574 2.14.35.41.877.615 1.583.615.264 0 .506-.033.725-.098l1.325.772.36-.622zM15.5 17.588c-.225-.36-.337-.94-.337-1.736 0-1.393.424-2.09 1.27-2.09.443 0 .77.167.977.5.224.362.336.936.336 1.723 0 1.404-.424 2.108-1.27 2.108-.445 0-.77-.167-.978-.5zm-1.658-.425c0 .47-.172.856-.516 1.156-.344.3-.803.45-1.384.45-.543 0-1.064-.172-1.573-.515l.237-.476c.438.22.833.328 1.19.328.332 0 .593-.073.783-.22a.754.754 0 00.3-.615c0-.33-.23-.61-.648-.845-.388-.213-1.163-.657-1.163-.657-.422-.307-.632-.636-.632-1.177 0-.45.157-.81.47-1.085.315-.278.72-.415 1.22-.415.512 0 .98.136 1.4.41l-.213.476a2.726 2.726 0 00-1.064-.23c-.283 0-.502.068-.654.206a.685.685 0 00-.248.524c0 .328.234.61.666.85.393.215 1.187.67 1.187.67.433.305.648.63.648 1.168zm9.382-5.852c-.535-.014-.95.04-1.297.188-.1.04-.26.04-.274.167.055.053.063.14.11.214.08.134.218.313.346.407.14.11.28.216.427.31.26.16.555.255.81.416.145.094.293.213.44.313.073.05.12.14.214.172v-.02c-.046-.06-.06-.147-.105-.214-.067-.067-.134-.127-.2-.193a3.223 3.223 0 00-.695-.675c-.214-.146-.682-.35-.77-.595l-.013-.014c.146-.013.32-.066.46-.106.227-.06.435-.047.67-.106.106-.027.213-.06.32-.094v-.06c-.12-.12-.21-.283-.334-.395a8.867 8.867 0 00-1.104-.823c-.21-.134-.476-.22-.697-.334-.08-.04-.214-.06-.26-.127-.12-.146-.19-.34-.275-.514a17.69 17.69 0 01-.547-1.163c-.12-.262-.193-.523-.34-.763-.69-1.137-1.437-1.826-2.586-2.5-.247-.14-.543-.2-.856-.274-.167-.008-.334-.02-.5-.027-.11-.047-.216-.174-.31-.235-.38-.24-1.364-.76-1.644-.072-.18.434.267.862.422 1.082.115.153.26.328.34.5.047.116.06.235.107.356.106.294.207.622.347.897.073.14.153.287.247.413.054.073.146.107.167.227-.094.136-.1.334-.154.5-.24.757-.146 1.693.194 2.25.107.166.362.534.703.393.3-.12.234-.5.32-.835.02-.08.007-.133.048-.187v.015c.094.188.188.367.274.555.206.328.566.668.867.895.16.12.287.328.487.402v-.02h-.015c-.043-.058-.1-.086-.154-.133a3.445 3.445 0 01-.35-.4 8.76 8.76 0 01-.747-1.218c-.11-.21-.202-.436-.29-.643-.04-.08-.04-.2-.107-.24-.1.146-.247.273-.32.453-.127.288-.14.642-.188 1.01-.027.007-.014 0-.027.014-.214-.052-.287-.274-.367-.46-.2-.475-.233-1.238-.06-1.785.047-.14.247-.582.167-.716-.042-.127-.174-.2-.247-.303a2.478 2.478 0 01-.24-.427c-.16-.374-.24-.788-.414-1.162-.08-.173-.22-.354-.334-.513-.127-.18-.267-.307-.368-.52-.033-.073-.08-.194-.027-.274.014-.054.042-.075.094-.09.088-.072.335.022.422.062.247.1.455.194.662.334.094.066.195.193.315.226h.14c.214.047.455.014.655.073.355.114.675.28.962.46a5.953 5.953 0 012.085 2.286c.08.154.115.295.188.455.14.33.313.663.455.982.14.315.275.636.476.897.1.14.502.213.682.286.133.06.34.115.46.188.23.14.454.3.67.454.11.076.443.243.463.378z"/></svg></g>
<g><rect x="116.0" y="126.0" width="30.0" height="30.0" rx="8.0" fill="#161B22" stroke="#21262D" stroke-width="1"/><svg x="121.5" y="131.5" width="19.0" height="19.0" viewBox="0 0 24 24"><path fill="#F7DF1E" d="M0 0h24v24H0V0zm22.034 18.276c-.175-1.095-.888-2.015-3.003-2.873-.736-.345-1.554-.585-1.797-1.14-.091-.33-.105-.51-.046-.705.15-.646.915-.84 1.515-.66.39.12.75.42.976.9 1.034-.676 1.034-.676 1.755-1.125-.27-.42-.404-.601-.586-.78-.63-.705-1.469-1.065-2.834-1.034l-.705.089c-.676.165-1.32.525-1.71 1.005-1.14 1.291-.811 3.541.569 4.471 1.365 1.02 3.361 1.244 3.616 2.205.24 1.17-.87 1.545-1.966 1.41-.811-.18-1.26-.586-1.755-1.336l-1.83 1.051c.21.48.45.689.81 1.109 1.74 1.756 6.09 1.666 6.871-1.004.029-.09.24-.705.074-1.65l.046.067zm-8.983-7.245h-2.248c0 1.938-.009 3.864-.009 5.805 0 1.232.063 2.363-.138 2.711-.33.689-1.18.601-1.566.48-.396-.196-.597-.466-.83-.855-.063-.105-.11-.196-.127-.196l-1.825 1.125c.305.63.75 1.172 1.324 1.517.855.51 2.004.675 3.207.405.783-.226 1.458-.691 1.811-1.411.51-.93.402-2.07.397-3.346.012-2.054 0-4.109 0-6.179l.004-.056z"/></svg></g>
<g><rect x="154.0" y="126.0" width="30.0" height="30.0" rx="8.0" fill="#161B22" stroke="#21262D" stroke-width="1"/><svg x="159.5" y="131.5" width="19.0" height="19.0" viewBox="0 0 24 24"><path fill="#1572B6" d="M1.5 0h21l-1.91 21.563L11.977 24l-8.565-2.438L1.5 0zm17.09 4.413L5.41 4.41l.213 2.622 10.125.002-.255 2.716h-6.64l.24 2.573h6.182l-.366 3.523-2.91.804-2.956-.81-.188-2.11h-2.61l.29 3.855L12 19.288l5.373-1.53L18.59 4.414z"/></svg></g>
<line x1="40.0" y1="172.0" x2="960.0" y2="172.0" stroke="#1C2128" stroke-width="1"/>
<circle cx="44.0" cy="194.0" r="2.6" fill="#58A6FF"/>
<text x="58.0" y="198.0" font-family="-apple-system,BlinkMacSystemFont,'Segoe UI',Helvetica,Arial,sans-serif" font-size="13.0"><tspan fill="#E6EDF3" font-weight="600">Automatización de procesos:</tspan><tspan fill="#9198A1"> Optimización de flujos y tareas cotidianas para ahorrar tiempo operativo a los contadores.</tspan></text>
<circle cx="44.0" cy="220.0" r="2.6" fill="#58A6FF"/>
<text x="58.0" y="224.0" font-family="-apple-system,BlinkMacSystemFont,'Segoe UI',Helvetica,Arial,sans-serif" font-size="13.0"><tspan fill="#E6EDF3" font-weight="600">Gestión de clientes:</tspan><tspan fill="#9198A1"> Módulo centralizado para seguimiento de cuentas, control fiscal y estados de cada cliente.</tspan></text>
<circle cx="44.0" cy="246.0" r="2.6" fill="#58A6FF"/>
<text x="58.0" y="250.0" font-family="-apple-system,BlinkMacSystemFont,'Segoe UI',Helvetica,Arial,sans-serif" font-size="13.0"><tspan fill="#E6EDF3" font-weight="600">Aplicaciones a medida:</tspan><tspan fill="#9198A1"> Herramientas web desarrolladas para necesidades específicas dentro del flujo de trabajo.</tspan></text>
<text x="40.0" y="288.0" font-family="ui-monospace,SFMono-Regular,'SF Mono',Menlo,Consolas,'Liberation Mono',monospace" font-size="10.5" fill="#6E7681" letter-spacing="2.4">CARACTERÍSTICAS Y ALCANCE</text>
<line x1="260.0" y1="284.0" x2="960.0" y2="284.0" stroke="#1C2128" stroke-width="1"/>
<text x="58.0" y="314.0" font-family="-apple-system,BlinkMacSystemFont,'Segoe UI',Helvetica,Arial,sans-serif" font-size="12.5"><tspan fill="#9198A1" font-weight="600">Panel administrativo:</tspan><tspan fill="#6E7681"> Administración interna de tareas, trámites y módulos de servicio contable.</tspan></text>
<text x="58.0" y="337.0" font-family="-apple-system,BlinkMacSystemFont,'Segoe UI',Helvetica,Arial,sans-serif" font-size="12.5"><tspan fill="#9198A1" font-weight="600">Presencia digital:</tspan><tspan fill="#6E7681"> Portal corporativo para difusión de servicios, captación de clientes y publicidad del despacho.</tspan></text>
<text x="58.0" y="360.0" font-family="-apple-system,BlinkMacSystemFont,'Segoe UI',Helvetica,Arial,sans-serif" font-size="12.5"><tspan fill="#9198A1" font-weight="600">Seguridad de datos:</tspan><tspan fill="#6E7681"> Gestión estructurada y confidencial de la información contable en base de datos.</tspan></text>
</svg>
